<svg width="58" height="49" viewBox="0 0 58 49" fill="none" xmlns="http://www.w3.org/2000/svg">
<path d="M27.3015 8.04152L29.1016 9.90937L30.9017 8.04151C36.6737 2.0522 42.6851 1.54975 47.1225 3.57547C51.7166 5.67274 55.1016 10.6737 55.1016 16.6573C55.1016 22.7968 52.5908 27.5346 48.9575 31.6206C45.9546 34.9977 42.3232 37.794 38.7507 40.5449C37.8988 41.201 37.0502 41.8545 36.2142 42.5126C34.7117 43.6955 33.3938 44.7154 32.1301 45.4529C30.8657 46.1908 29.8927 46.5 29.1016 46.5C28.3104 46.5 27.3374 46.1908 26.073 45.4529C24.8093 44.7154 23.4915 43.6955 21.989 42.5126C21.153 41.8545 20.3044 41.201 19.4524 40.5449C15.88 37.794 12.2486 34.9976 9.24567 31.6206C5.61235 27.5346 3.10156 22.7968 3.10156 16.6573C3.10156 10.6736 6.4865 5.67274 11.0806 3.57547C15.5179 1.54975 21.5293 2.0522 27.3015 8.04152Z" fill="#FF4858" stroke="black" stroke-width="5"/>
</svg>
